<svg width="120" height="120" viewBox="0 0 120 120" fill="none" xmlns="http://www.w3.org/2000/svg">
<g clip-path="url(#clip0_100_21)">
<path d="M48.96 56.8V52.8H44.96V56.8H48.96ZM89.28 56.8H93.28V52.8H89.28V56.8ZM89.28 72.4V76.4H93.28V72.4H89.28ZM48.96 72.4H44.96V76.4H48.96V72.4ZM50.4 103V107H54.4V103H50.4ZM30.96 103H26.96V107H30.96V103ZM30.96 19V15H26.96V19H30.96ZM94.44 19H98.44V15H94.44V19ZM94.44 34.6V38.6H98.44V34.6H94.44ZM50.4 34.6V30.6H46.4V34.6H50.4ZM48.96 60.8H89.28V52.8H48.96V60.8ZM85.28 56.8V72.4H93.28V56.8H85.28ZM89.28 68.4H48.96V76.4H89.28V68.4ZM52.96 72.4V56.8H44.96V72.4H52.96ZM50.4 99H30.96V107H50.4V99ZM34.96 103V19H26.96V103H34.96ZM30.96 23H94.44V15H30.96V23ZM90.44 19V34.6H98.44V19H90.44ZM94.44 30.6H50.4V38.6H94.44V30.6ZM46.4 34.6V103H54.4V34.6H46.4Z" fill="#55037B"/>
</g>
<defs>
<clipPath id="clip0_100_21">
<rect width="120" height="120" fill="white"/>
</clipPath>
</defs>
</svg>
