<svg width="120" height="120" viewBox="0 0 120 120" fill="none" xmlns="http://www.w3.org/2000/svg">
<g clip-path="url(#clip0_100_19)">
<path d="M54.988 103H50.988V107H54.988V103ZM54.988 77.8V73.8H50.988V77.8H54.988ZM59.812 77.8L63.2371 75.7339L62.0705 73.8H59.812V77.8ZM70.54 95.584V99.584H77.6244L73.9651 93.5179L70.54 95.584ZM67.984 95.584L64.5436 93.5435L60.9609 99.584H67.984V95.584ZM78.532 77.8V73.8H76.2538L75.0916 75.7595L78.532 77.8ZM83.32 77.8L87.32 77.7886L87.3086 73.8H83.32V77.8ZM83.392 103V107H87.4034L87.392 102.989L83.392 103ZM77.92 103L73.92 103.009L73.9286 107H77.92V103ZM77.884 86.188V82.188H73.8754L73.884 86.1966L77.884 86.188ZM78.892 86.188L82.3289 88.2344L85.929 82.188H78.892V86.188ZM70.468 100.336V104.336H72.7417L73.9049 102.382L70.468 100.336ZM67.84 100.336L64.4224 102.414L65.591 104.336H67.84V100.336ZM59.236 86.188V82.188H52.1218L55.8184 88.2664L59.236 86.188ZM60.46 86.188H64.46V82.188H60.46V86.188ZM60.46 103V107H64.46V103H60.46ZM58.988 103V77.8H50.988V103H58.988ZM54.988 81.8H59.812V73.8H54.988V81.8ZM56.3869 79.8661L67.1149 97.6501L73.9651 93.5179L63.2371 75.7339L56.3869 79.8661ZM70.54 91.584H67.984V99.584H70.54V91.584ZM71.4244 97.6245L81.9724 79.8405L75.0916 75.7595L64.5436 93.5435L71.4244 97.6245ZM78.532 81.8H83.32V73.8H78.532V81.8ZM79.32 77.8114L79.392 103.011L87.392 102.989L87.32 77.7886L79.32 77.8114ZM83.392 99H77.92V107H83.392V99ZM81.92 102.991L81.884 86.1794L73.884 86.1966L73.92 103.009L81.92 102.991ZM77.884 90.188H78.892V82.188H77.884V90.188ZM75.4551 84.1416L67.0311 98.2896L73.9049 102.382L82.3289 88.2344L75.4551 84.1416ZM70.468 96.336H67.84V104.336H70.468V96.336ZM71.2576 98.2576L62.6536 84.1096L55.8184 88.2664L64.4224 102.414L71.2576 98.2576ZM59.236 90.188H60.46V82.188H59.236V90.188ZM56.46 86.188V103H64.46V86.188H56.46ZM60.46 99H54.988V107H60.46V99Z" fill="#55037B"/>
<path d="M48.96 56.8V52.8H44.96V56.8H48.96ZM89.28 56.8H93.28V52.8H89.28V56.8ZM89.28 72.4V76.4H93.28V72.4H89.28ZM48.96 72.4H44.96V76.4H48.96V72.4ZM50.4 103V107H54.4V103H50.4ZM30.96 103H26.96V107H30.96V103ZM30.96 19V15H26.96V19H30.96ZM94.44 19H98.44V15H94.44V19ZM94.44 34.6V38.6H98.44V34.6H94.44ZM50.4 34.6V30.6H46.4V34.6H50.4ZM48.96 60.8H89.28V52.8H48.96V60.8ZM85.28 56.8V72.4H93.28V56.8H85.28ZM89.28 68.4H48.96V76.4H89.28V68.4ZM52.96 72.4V56.8H44.96V72.4H52.96ZM50.4 99H30.96V107H50.4V99ZM34.96 103V19H26.96V103H34.96ZM30.96 23H94.44V15H30.96V23ZM90.44 19V34.6H98.44V19H90.44ZM94.44 30.6H50.4V38.6H94.44V30.6ZM46.4 34.6V103H54.4V34.6H46.4Z" fill="#55037B"/>
</g>
<defs>
<clipPath id="clip0_100_19">
<rect width="120" height="120" fill="white"/>
</clipPath>
</defs>
</svg>
